<svg width="1200" height="630" viewBox="0 0 1200 630" fill="none" xmlns="http://www.w3.org/2000/svg">
  <defs>
    <linearGradient id="bg" x1="144" y1="18" x2="1050" y2="630" gradientUnits="userSpaceOnUse">
      <stop stop-color="#140824"/>
      <stop offset="1" stop-color="#04070d"/>
    </linearGradient>
    <linearGradient id="panel" x1="184" y1="104" x2="1010" y2="526" gradientUnits="userSpaceOnUse">
      <stop stop-color="#241040" stop-opacity="0.98"/>
      <stop offset="1" stop-color="#090814" stop-opacity="0.98"/>
    </linearGradient>
    <filter id="shadow" x="92" y="72" width="1016" height="514" filterUnits="userSpaceOnUse" color-interpolation-filters="sRGB">
      <feFlood flood-opacity="0" result="BackgroundImageFix"/>
      <feColorMatrix in="SourceAlpha" type="matrix" values="0 0 0 0 0 0 0 0 0 0 0 0 0 0 0 0 0 0 127 0" result="hardAlpha"/>
      <feOffset dy="16"/>
      <feGaussianBlur stdDeviation="24"/>
      <feComposite in2="hardAlpha" operator="out"/>
      <feColorMatrix type="matrix" values="0 0 0 0 0.04 0 0 0 0 0.02 0 0 0 0 0.09 0 0 0 0.44 0"/>
      <feBlend mode="normal" in2="BackgroundImageFix" result="effect1_dropShadow"/>
      <feBlend mode="normal" in="SourceGraphic" in2="effect1_dropShadow" result="shape"/>
    </filter>
  </defs>
  <rect width="1200" height="630" fill="url(#bg)"/>
  <circle cx="1040" cy="90" r="198" fill="#a855f7" fill-opacity="0.14"/>
  <circle cx="1040" cy="560" r="152" fill="#22c55e" fill-opacity="0.09"/>
  <circle cx="142" cy="118" r="150" fill="#6d28d9" fill-opacity="0.16"/>
  <g filter="url(#shadow)">
    <rect x="140" y="104" width="920" height="418" rx="34" fill="url(#panel)" stroke="#ffffff" stroke-opacity="0.14"/>
  </g>
  <rect x="188" y="156" width="190" height="46" rx="23" fill="#1b1033" stroke="#6d28d9"/>
  <text x="210" y="186" fill="#ddd6fe" font-family="Arial, Helvetica, sans-serif" font-size="19" font-weight="700" letter-spacing="2">UK ELECTIONS</text>
  <text x="188" y="276" fill="#f8fafc" font-family="Arial, Helvetica, sans-serif" font-size="68" font-weight="800">Forecasts, candidates,</text>
  <text x="188" y="352" fill="#f8fafc" font-family="Arial, Helvetica, sans-serif" font-size="68" font-weight="800">results and backtests</text>
  <text x="188" y="420" fill="#ddd6fe" font-family="Arial, Helvetica, sans-serif" font-size="26" font-weight="500">Election intelligence for every UK contest.</text>
  <text x="188" y="458" fill="#b7a8d8" font-family="Arial, Helvetica, sans-serif" font-size="22" font-weight="500">Confidence intervals | boundary changes | candidate data | public methodology</text>
  <rect x="790" y="166" width="190" height="214" rx="32" fill="#110a22" stroke="#6d28d9"/>
  <rect x="828" y="206" width="114" height="134" rx="16" fill="#6d28d9"/>
  <rect x="852" y="232" width="66" height="10" rx="5" fill="#ddd6fe"/>
  <rect x="852" y="262" width="66" height="10" rx="5" fill="#ddd6fe" opacity="0.75"/>
  <path d="M846 314l24 24 58-68" stroke="#22c55e" stroke-width="10" stroke-linecap="round" stroke-linejoin="round"/>
  <path d="M844 196h82" stroke="#c084fc" stroke-width="8" stroke-linecap="round"/>
  <rect x="188" y="494" width="214" height="10" rx="5" fill="#241b38"/>
  <rect x="188" y="494" width="146" height="10" rx="5" fill="#6d28d9"/>
  <rect x="420" y="494" width="188" height="10" rx="5" fill="#241b38"/>
  <rect x="420" y="494" width="118" height="10" rx="5" fill="#22c55e"/>
  <rect x="626" y="494" width="140" height="10" rx="5" fill="#241b38"/>
  <rect x="626" y="494" width="88" height="10" rx="5" fill="#38bdf8"/>
</svg>
